<svg xmlns="http://www.w3.org/2000/svg" viewBox="0 0 681.5 421.5"><rect x="0.75" y="0.75" width="680" height="420" style="fill:#fff59d"/><line x1="20.75" y1="420.75" x2="20.75" y2="0.75" style="fill:none;stroke:#fdd835;stroke-miterlimit:10;stroke-width:1.5px"/><line x1="0.75" y1="420.75" x2="0.75" y2="0.75" style="fill:none;stroke:#fdd835;stroke-miterlimit:10;stroke-width:1.5px"/><line x1="40.75" y1="0.75" x2="40.75" y2="420.75" style="fill:none;stroke:#fdd835;stroke-miterlimit:10;stroke-width:1.5px"/><line x1="60.75" y1="420.75" x2="60.75" y2="0.75" style="fill:none;stroke:#fdd835;stroke-miterlimit:10;stroke-width:1.5px"/><line x1="80.75" y1="0.75" x2="80.75" y2="420.75" style="fill:none;stroke:#fdd835;stroke-miterlimit:10;stroke-width:1.5px"/><line x1="100.75" y1="420.75" x2="100.75" y2="0.75" style="fill:none;stroke:#fdd835;stroke-miterlimit:10;stroke-width:1.5px"/><line x1="120.75" y1="0.75" x2="120.75" y2="420.75" style="fill:none;stroke:#fdd835;stroke-miterlimit:10;stroke-width:1.5px"/><line x1="140.75" y1="420.75" x2="140.75" y2="0.75" style="fill:none;stroke:#fdd835;stroke-miterlimit:10;stroke-width:1.5px"/><line x1="160.75" y1="0.75" x2="160.75" y2="420.75" style="fill:none;stroke:#fdd835;stroke-miterlimit:10;stroke-width:1.5px"/><line x1="180.75" y1="420.75" x2="180.75" y2="0.75" style="fill:none;stroke:#fdd835;stroke-miterlimit:10;stroke-width:1.5px"/><line x1="200.75" y1="0.75" x2="200.75" y2="420.75" style="fill:none;stroke:#fdd835;stroke-miterlimit:10;stroke-width:1.5px"/><line x1="220.75" y1="420.75" x2="220.75" y2="0.75" style="fill:none;stroke:#fdd835;stroke-miterlimit:10;stroke-width:1.5px"/><line x1="240.75" y1="0.75" x2="240.75" y2="420.75" style="fill:none;stroke:#fdd835;stroke-miterlimit:10;stroke-width:1.5px"/><line x1="260.75" y1="420.75" x2="260.75" y2="0.75" style="fill:none;stroke:#fdd835;stroke-miterlimit:10;stroke-width:1.5px"/><line x1="280.75" y1="0.75" x2="280.75" y2="420.75" style="fill:none;stroke:#fdd835;stroke-miterlimit:10;stroke-width:1.5px"/><line x1="300.75" y1="420.75" x2="300.75" y2="0.75" style="fill:none;stroke:#fdd835;stroke-miterlimit:10;stroke-width:1.5px"/><line x1="320.75" y1="0.75" x2="320.75" y2="420.75" style="fill:none;stroke:#fdd835;stroke-miterlimit:10;stroke-width:1.5px"/><line x1="340.75" y1="420.75" x2="340.75" y2="0.75" style="fill:none;stroke:#fdd835;stroke-miterlimit:10;stroke-width:1.5px"/><line x1="360.75" y1="0.75" x2="360.75" y2="420.75" style="fill:none;stroke:#fdd835;stroke-miterlimit:10;stroke-width:1.5px"/><line x1="380.75" y1="420.75" x2="380.75" y2="0.75" style="fill:none;stroke:#fdd835;stroke-miterlimit:10;stroke-width:1.5px"/><line x1="400.75" y1="0.75" x2="400.75" y2="420.75" style="fill:none;stroke:#fdd835;stroke-miterlimit:10;stroke-width:1.5px"/><line x1="420.75" y1="420.75" x2="420.75" y2="0.75" style="fill:none;stroke:#fdd835;stroke-miterlimit:10;stroke-width:1.5px"/><line x1="440.75" y1="0.75" x2="440.75" y2="420.75" style="fill:none;stroke:#fdd835;stroke-miterlimit:10;stroke-width:1.5px"/><line x1="460.75" y1="420.75" x2="460.75" y2="0.75" style="fill:none;stroke:#fdd835;stroke-miterlimit:10;stroke-width:1.5px"/><line x1="480.75" y1="0.75" x2="480.75" y2="420.75" style="fill:none;stroke:#fdd835;stroke-miterlimit:10;stroke-width:1.5px"/><line x1="500.75" y1="420.75" x2="500.75" y2="0.75" style="fill:none;stroke:#fdd835;stroke-miterlimit:10;stroke-width:1.5px"/><line x1="520.75" y1="0.75" x2="520.75" y2="420.75" style="fill:none;stroke:#fdd835;stroke-miterlimit:10;stroke-width:1.5px"/><line x1="540.75" y1="420.75" x2="540.75" y2="0.75" style="fill:none;stroke:#fdd835;stroke-miterlimit:10;stroke-width:1.5px"/><line x1="560.75" y1="0.75" x2="560.75" y2="420.75" style="fill:none;stroke:#fdd835;stroke-miterlimit:10;stroke-width:1.5px"/><line x1="580.75" y1="420.75" x2="580.75" y2="0.75" style="fill:none;stroke:#fdd835;stroke-miterlimit:10;stroke-width:1.5px"/><line x1="600.75" y1="0.75" x2="600.75" y2="420.75" style="fill:none;stroke:#fdd835;stroke-miterlimit:10;stroke-width:1.5px"/><line x1="620.75" y1="420.75" x2="620.75" y2="0.75" style="fill:none;stroke:#fdd835;stroke-miterlimit:10;stroke-width:1.5px"/><line x1="640.75" y1="0.75" x2="640.75" y2="420.75" style="fill:none;stroke:#fdd835;stroke-miterlimit:10;stroke-width:1.5px"/><line x1="660.75" y1="420.75" x2="660.75" y2="0.75" style="fill:none;stroke:#fdd835;stroke-miterlimit:10;stroke-width:1.5px"/><line x1="680.75" y1="420.75" x2="680.75" y2="0.75" style="fill:none;stroke:#fdd835;stroke-miterlimit:10;stroke-width:1.5px"/><line x1="0.75" y1="380.75" x2="680.75" y2="380.75" style="fill:none;stroke:#fdd835;stroke-miterlimit:10;stroke-width:1.5px"/><line x1="680.75" y1="400.75" x2="0.75" y2="400.75" style="fill:none;stroke:#fdd835;stroke-miterlimit:10;stroke-width:1.5px"/><line x1="680.75" y1="420.75" x2="0.75" y2="420.75" style="fill:none;stroke:#fdd835;stroke-miterlimit:10;stroke-width:1.5px"/><line x1="0.75" y1="340.75" x2="680.75" y2="340.75" style="fill:none;stroke:#fdd835;stroke-miterlimit:10;stroke-width:1.5px"/><line x1="680.75" y1="360.75" x2="0.75" y2="360.75" style="fill:none;stroke:#fdd835;stroke-miterlimit:10;stroke-width:1.5px"/><line x1="0.75" y1="300.75" x2="680.75" y2="300.75" style="fill:none;stroke:#fdd835;stroke-miterlimit:10;stroke-width:1.5px"/><line x1="680.75" y1="320.75" x2="0.75" y2="320.75" style="fill:none;stroke:#fdd835;stroke-miterlimit:10;stroke-width:1.5px"/><line x1="0.75" y1="260.75" x2="680.75" y2="260.75" style="fill:none;stroke:#fdd835;stroke-miterlimit:10;stroke-width:1.5px"/><line x1="680.75" y1="280.75" x2="0.75" y2="280.75" style="fill:none;stroke:#fdd835;stroke-miterlimit:10;stroke-width:1.5px"/><line x1="0.75" y1="220.75" x2="680.75" y2="220.75" style="fill:none;stroke:#fdd835;stroke-miterlimit:10;stroke-width:1.5px"/><line x1="680.75" y1="240.75" x2="0.75" y2="240.75" style="fill:none;stroke:#fdd835;stroke-miterlimit:10;stroke-width:1.5px"/><line x1="0.75" y1="180.75" x2="680.75" y2="180.75" style="fill:none;stroke:#fdd835;stroke-miterlimit:10;stroke-width:1.5px"/><line x1="680.75" y1="200.75" x2="0.75" y2="200.75" style="fill:none;stroke:#fdd835;stroke-miterlimit:10;stroke-width:1.5px"/><line x1="0.75" y1="140.75" x2="680.75" y2="140.75" style="fill:none;stroke:#fdd835;stroke-miterlimit:10;stroke-width:1.5px"/><line x1="680.75" y1="160.75" x2="0.75" y2="160.75" style="fill:none;stroke:#fdd835;stroke-miterlimit:10;stroke-width:1.5px"/><line x1="0.75" y1="100.75" x2="680.75" y2="100.75" style="fill:none;stroke:#fdd835;stroke-miterlimit:10;stroke-width:1.5px"/><line x1="680.75" y1="120.75" x2="0.75" y2="120.75" style="fill:none;stroke:#fdd835;stroke-miterlimit:10;stroke-width:1.5px"/><line x1="0.75" y1="60.75" x2="680.75" y2="60.75" style="fill:none;stroke:#fdd835;stroke-miterlimit:10;stroke-width:1.5px"/><line x1="680.75" y1="80.75" x2="0.75" y2="80.75" style="fill:none;stroke:#fdd835;stroke-miterlimit:10;stroke-width:1.5px"/><line x1="0.75" y1="20.75" x2="680.75" y2="20.75" style="fill:none;stroke:#fdd835;stroke-miterlimit:10;stroke-width:1.5px"/><line x1="0.75" y1="0.75" x2="680.75" y2="0.75" style="fill:none;stroke:#fdd835;stroke-miterlimit:10;stroke-width:1.5px"/><line x1="680.75" y1="40.75" x2="0.75" y2="40.75" style="fill:none;stroke:#fdd835;stroke-miterlimit:10;stroke-width:1.5px"/><rect x="0.75" y="0.75" width="420" height="420" style="fill:none;stroke:#000;stroke-width:1.5px"/><rect x="420.75" y="0.75" width="260" height="260" style="fill:none;stroke:#000;stroke-miterlimit:10;stroke-width:1.5px"/><rect x="520.75" y="260.75" width="160" height="160" style="fill:none;stroke:#000;stroke-miterlimit:10;stroke-width:1.5px"/><rect x="420.75" y="320.75" width="100" height="100" style="fill:none;stroke:#000;stroke-miterlimit:10;stroke-width:1.5px"/><rect x="420.75" y="260.75" width="60" height="60" style="fill:none;stroke:#000;stroke-miterlimit:10;stroke-width:1.5px"/><rect x="480.75" y="260.75" width="40" height="40" style="fill:none;stroke:#000;stroke-miterlimit:10;stroke-width:1.5px"/><rect x="500.75" y="300.75" width="20" height="20" style="fill:none;stroke:#000;stroke-miterlimit:10;stroke-width:1.5px"/><rect x="480.75" y="300.75" width="20" height="20" style="fill:none;stroke:#000;stroke-miterlimit:10;stroke-width:1.5px"/><path d="M180.48,236.87V232l18.28-19.69a46,46,0,0,0,5.52-6.85,12.1,12.1,0,0,0,1.86-6.51,8.77,8.77,0,0,0-2.37-6.11,8.46,8.46,0,0,0-6.59-2.61,9.9,9.9,0,0,0-7.12,2.78,10.13,10.13,0,0,0-2.9,7.7V201h-6.68v-.35a15.1,15.1,0,0,1,4.8-11.53,16.71,16.71,0,0,1,11.9-4.5q7,0,11.33,4.15a13.13,13.13,0,0,1,4.31,9.77,15.65,15.65,0,0,1-2.81,9.07,68.92,68.92,0,0,1-6.86,8.33L188.84,231h25.39v5.83Z"/><path d="M236.23,236.87V193.1l-12.93,5.45V192l18.63-7h1v51.89Z"/><path d="M531.89,152.08V115.6l-10.78,4.54V114.7l15.53-5.86h.88v43.24Z"/><path d="M552.28,141v-.3h5.45v.3a6.63,6.63,0,0,0,2.35,5.44,9.44,9.44,0,0,0,6.21,1.94,9.32,9.32,0,0,0,6.18-1.94c1.54-1.28,2.31-3.3,2.31-6a7.43,7.43,0,0,0-2.6-6.18,10.92,10.92,0,0,0-7-2.08H561.8v-4.51h3.08a9,9,0,0,0,6.24-2,7,7,0,0,0,2.2-5.48,6.73,6.73,0,0,0-1.91-5.24,7.33,7.33,0,0,0-5.12-1.73,7.93,7.93,0,0,0-5.39,1.73,6.19,6.19,0,0,0-2,4.95v.29h-5.44v-.29a10.57,10.57,0,0,1,3.54-8,14.68,14.68,0,0,1,18.4-.14,10.42,10.42,0,0,1,3.54,8.14,10.79,10.79,0,0,1-1.61,5.63,10.41,10.41,0,0,1-5,4.16v.11a10.42,10.42,0,0,1,8.15,10.58,11.44,11.44,0,0,1-4,9.26A15.28,15.28,0,0,1,566.29,153q-6.51,0-10.26-3.37A11.1,11.1,0,0,1,552.28,141Z"/><path d="M588.25,350.57a9.27,9.27,0,0,1,1.89-5.86,11.26,11.26,0,0,1,4.84-3.63V341a10.36,10.36,0,0,1-3.89-3.42,9.23,9.23,0,0,1-1.63-5.46,9.65,9.65,0,0,1,3.29-7.63,12.61,12.61,0,0,1,16,0,9.69,9.69,0,0,1,3.26,7.66,9.29,9.29,0,0,1-1.61,5.46,10.41,10.41,0,0,1-3.88,3.42v.11a11.23,11.23,0,0,1,4.83,3.63,9.38,9.38,0,0,1,1.87,5.86,9.78,9.78,0,0,1-3.6,8.1,15.19,15.19,0,0,1-17.77,0A9.75,9.75,0,0,1,588.25,350.57Zm5-.26a6.69,6.69,0,0,0,2.07,5.11,8.65,8.65,0,0,0,11,0,6.74,6.74,0,0,0,2-5.11,6.84,6.84,0,0,0-2-5.14,8.59,8.59,0,0,0-11,0A6.79,6.79,0,0,0,593.21,350.31Zm1.11-18a6.68,6.68,0,0,0,1.78,4.79,6.1,6.1,0,0,0,4.68,1.88,6,6,0,0,0,4.65-1.88,6.75,6.75,0,0,0,1.75-4.79,6.66,6.66,0,0,0-1.75-4.76,6.09,6.09,0,0,0-4.65-1.86,6.16,6.16,0,0,0-4.68,1.86A6.59,6.59,0,0,0,594.32,332.35Z"/><path d="M461,377.91v-.21h3.77v.21a4.34,4.34,0,0,0,1.6,3.56,6.61,6.61,0,0,0,4.27,1.3A5.71,5.71,0,0,0,475,381a7.14,7.14,0,0,0,1.71-5.09,6.82,6.82,0,0,0-1.71-5,5.89,5.89,0,0,0-4.36-1.72,7.48,7.48,0,0,0-3.26.67,9.24,9.24,0,0,0-2.65,1.89L462,370.42l1.52-14.89H479V359h-12.3l-.9,8.41a12.78,12.78,0,0,1,2.4-1.09,9.31,9.31,0,0,1,3-.47,9.22,9.22,0,0,1,6.63,2.63A10.17,10.17,0,0,1,470.61,386q-4.61,0-7.12-2.31A7.53,7.53,0,0,1,461,377.91Z"/><path d="M442.16,296.79v-.18h3.27v.18a4,4,0,0,0,1.4,3.27,5.7,5.7,0,0,0,3.73,1.16,5.62,5.62,0,0,0,3.71-1.16,5.28,5.28,0,0,0-.18-7.33,6.55,6.55,0,0,0-4.2-1.25h-2v-2.71h1.84a5.42,5.42,0,0,0,3.75-1.18,4.16,4.16,0,0,0,1.32-3.28,4,4,0,0,0-1.15-3.15,4.39,4.39,0,0,0-3.07-1,4.79,4.79,0,0,0-3.24,1,3.73,3.73,0,0,0-1.19,3v.18h-3.27v-.18a6.34,6.34,0,0,1,2.13-4.8,8.82,8.82,0,0,1,11-.08,6.25,6.25,0,0,1,2.12,4.88,6.55,6.55,0,0,1-1,3.38,6.27,6.27,0,0,1-3,2.49v.07a6.27,6.27,0,0,1,4.89,6.35,6.87,6.87,0,0,1-2.41,5.55,9.17,9.17,0,0,1-6.1,2,8.86,8.86,0,0,1-6.15-2A6.63,6.63,0,0,1,442.16,296.79Z"/><path d="M495.27,289.46v-1.64l6.09-6.57A15.28,15.28,0,0,0,503.2,279a4.08,4.08,0,0,0,.62-2.17,2.92,2.92,0,0,0-.79-2,2.83,2.83,0,0,0-2.2-.87,3.27,3.27,0,0,0-2.37.93,3.37,3.37,0,0,0-1,2.57v.11h-2.22v-.11a5,5,0,0,1,1.6-3.85,5.55,5.55,0,0,1,4-1.5,5.2,5.2,0,0,1,3.78,1.39,4.35,4.35,0,0,1,1.44,3.25,5.27,5.27,0,0,1-.94,3,23.57,23.57,0,0,1-2.29,2.77l-4.77,5h8.47v1.95Z"/><path d="M490.49,316V307.5L488,308.56v-1.27l3.63-1.37h.2V316Z"/><path d="M510.49,316V307.5L508,308.56v-1.27l3.63-1.37h.2V316Z"/></svg>