<svg xmlns="http://www.w3.org/2000/svg" viewBox="0 0 684 424"><g style="isolation:isolate"><rect x="2" y="2" width="420" height="420" style="fill:#ff8a80"/><rect x="422" y="2" width="260" height="260" style="fill:#ffd180"/><rect x="522" y="262" width="160" height="160" style="fill:#ccff90"/><rect x="422" y="322" width="100" height="100" style="fill:#84ffff"/><rect x="422" y="262" width="60" height="60" style="fill:#8c9eff"/><rect x="482" y="262" width="40" height="40" style="fill:#b388ff"/><rect x="502" y="302" width="20" height="20" style="fill:#ea80fc"/><rect x="482" y="302" width="20" height="20" style="fill:#fff"/><g style="mix-blend-mode:multiply;opacity:0.1"><line x1="22" y1="422" x2="22" y2="2" style="fill:none;stroke:#640000;stroke-miterlimit:10;stroke-width:1.5px"/><line x1="2" y1="422" x2="2" y2="2" style="fill:none;stroke:#640000;stroke-miterlimit:10;stroke-width:1.5px"/><line x1="42" y1="2" x2="42" y2="422" style="fill:none;stroke:#640000;stroke-miterlimit:10;stroke-width:1.5px"/><line x1="62" y1="422" x2="62" y2="2" style="fill:none;stroke:#640000;stroke-miterlimit:10;stroke-width:1.5px"/><line x1="82" y1="2" x2="82" y2="422" style="fill:none;stroke:#640000;stroke-miterlimit:10;stroke-width:1.5px"/><line x1="102" y1="422" x2="102" y2="2" style="fill:none;stroke:#640000;stroke-miterlimit:10;stroke-width:1.5px"/><line x1="122" y1="2" x2="122" y2="422" style="fill:none;stroke:#640000;stroke-miterlimit:10;stroke-width:1.5px"/><line x1="142" y1="422" x2="142" y2="2" style="fill:none;stroke:#640000;stroke-miterlimit:10;stroke-width:1.5px"/><line x1="162" y1="2" x2="162" y2="422" style="fill:none;stroke:#640000;stroke-miterlimit:10;stroke-width:1.5px"/><line x1="182" y1="422" x2="182" y2="2" style="fill:none;stroke:#640000;stroke-miterlimit:10;stroke-width:1.5px"/><line x1="202" y1="2" x2="202" y2="422" style="fill:none;stroke:#640000;stroke-miterlimit:10;stroke-width:1.5px"/><line x1="222" y1="422" x2="222" y2="2" style="fill:none;stroke:#640000;stroke-miterlimit:10;stroke-width:1.5px"/><line x1="242" y1="2" x2="242" y2="422" style="fill:none;stroke:#640000;stroke-miterlimit:10;stroke-width:1.5px"/><line x1="262" y1="422" x2="262" y2="2" style="fill:none;stroke:#640000;stroke-miterlimit:10;stroke-width:1.5px"/><line x1="282" y1="2" x2="282" y2="422" style="fill:none;stroke:#640000;stroke-miterlimit:10;stroke-width:1.5px"/><line x1="302" y1="422" x2="302" y2="2" style="fill:none;stroke:#640000;stroke-miterlimit:10;stroke-width:1.5px"/><line x1="322" y1="2" x2="322" y2="422" style="fill:none;stroke:#640000;stroke-miterlimit:10;stroke-width:1.5px"/><line x1="342" y1="422" x2="342" y2="2" style="fill:none;stroke:#640000;stroke-miterlimit:10;stroke-width:1.5px"/><line x1="362" y1="2" x2="362" y2="422" style="fill:none;stroke:#640000;stroke-miterlimit:10;stroke-width:1.5px"/><line x1="382" y1="422" x2="382" y2="2" style="fill:none;stroke:#640000;stroke-miterlimit:10;stroke-width:1.5px"/><line x1="402" y1="2" x2="402" y2="422" style="fill:none;stroke:#640000;stroke-miterlimit:10;stroke-width:1.5px"/><line x1="422" y1="422" x2="422" y2="2" style="fill:none;stroke:#640000;stroke-miterlimit:10;stroke-width:1.5px"/><line x1="442" y1="2" x2="442" y2="422" style="fill:none;stroke:#640000;stroke-miterlimit:10;stroke-width:1.5px"/><line x1="462" y1="422" x2="462" y2="2" style="fill:none;stroke:#640000;stroke-miterlimit:10;stroke-width:1.5px"/><line x1="482" y1="2" x2="482" y2="422" style="fill:none;stroke:#640000;stroke-miterlimit:10;stroke-width:1.5px"/><line x1="502" y1="422" x2="502" y2="2" style="fill:none;stroke:#640000;stroke-miterlimit:10;stroke-width:1.5px"/><line x1="522" y1="2" x2="522" y2="422" style="fill:none;stroke:#640000;stroke-miterlimit:10;stroke-width:1.5px"/><line x1="542" y1="422" x2="542" y2="2" style="fill:none;stroke:#640000;stroke-miterlimit:10;stroke-width:1.5px"/><line x1="562" y1="2" x2="562" y2="422" style="fill:none;stroke:#640000;stroke-miterlimit:10;stroke-width:1.5px"/><line x1="582" y1="422" x2="582" y2="2" style="fill:none;stroke:#640000;stroke-miterlimit:10;stroke-width:1.5px"/><line x1="602" y1="2" x2="602" y2="422" style="fill:none;stroke:#640000;stroke-miterlimit:10;stroke-width:1.5px"/><line x1="622" y1="422" x2="622" y2="2" style="fill:none;stroke:#640000;stroke-miterlimit:10;stroke-width:1.5px"/><line x1="642" y1="2" x2="642" y2="422" style="fill:none;stroke:#640000;stroke-miterlimit:10;stroke-width:1.5px"/><line x1="662" y1="422" x2="662" y2="2" style="fill:none;stroke:#640000;stroke-miterlimit:10;stroke-width:1.5px"/><line x1="682" y1="422" x2="682" y2="2" style="fill:none;stroke:#640000;stroke-miterlimit:10;stroke-width:1.5px"/><line x1="2" y1="382" x2="682" y2="382" style="fill:none;stroke:#640000;stroke-miterlimit:10;stroke-width:1.5px"/><line x1="682" y1="402" x2="2" y2="402" style="fill:none;stroke:#640000;stroke-miterlimit:10;stroke-width:1.5px"/><line x1="682" y1="422" x2="2" y2="422" style="fill:none;stroke:#640000;stroke-miterlimit:10;stroke-width:1.5px"/><line x1="2" y1="342" x2="682" y2="342" style="fill:none;stroke:#640000;stroke-miterlimit:10;stroke-width:1.5px"/><line x1="682" y1="362" x2="2" y2="362" style="fill:none;stroke:#640000;stroke-miterlimit:10;stroke-width:1.5px"/><line x1="2" y1="302" x2="682" y2="302" style="fill:none;stroke:#640000;stroke-miterlimit:10;stroke-width:1.5px"/><line x1="682" y1="322" x2="2" y2="322" style="fill:none;stroke:#640000;stroke-miterlimit:10;stroke-width:1.5px"/><line x1="2" y1="262" x2="682" y2="262" style="fill:none;stroke:#640000;stroke-miterlimit:10;stroke-width:1.5px"/><line x1="682" y1="282" x2="2" y2="282" style="fill:none;stroke:#640000;stroke-miterlimit:10;stroke-width:1.5px"/><line x1="2" y1="222" x2="682" y2="222" style="fill:none;stroke:#640000;stroke-miterlimit:10;stroke-width:1.5px"/><line x1="682" y1="242" x2="2" y2="242" style="fill:none;stroke:#640000;stroke-miterlimit:10;stroke-width:1.5px"/><line x1="2" y1="182" x2="682" y2="182" style="fill:none;stroke:#640000;stroke-miterlimit:10;stroke-width:1.5px"/><line x1="682" y1="202" x2="2" y2="202" style="fill:none;stroke:#640000;stroke-miterlimit:10;stroke-width:1.5px"/><line x1="2" y1="142" x2="682" y2="142" style="fill:none;stroke:#640000;stroke-miterlimit:10;stroke-width:1.5px"/><line x1="682" y1="162" x2="2" y2="162" style="fill:none;stroke:#640000;stroke-miterlimit:10;stroke-width:1.5px"/><line x1="2" y1="102" x2="682" y2="102" style="fill:none;stroke:#640000;stroke-miterlimit:10;stroke-width:1.5px"/><line x1="682" y1="122" x2="2" y2="122" style="fill:none;stroke:#640000;stroke-miterlimit:10;stroke-width:1.5px"/><line x1="2" y1="62" x2="682" y2="62" style="fill:none;stroke:#640000;stroke-miterlimit:10;stroke-width:1.5px"/><line x1="682" y1="82" x2="2" y2="82" style="fill:none;stroke:#640000;stroke-miterlimit:10;stroke-width:1.5px"/><line x1="2" y1="22" x2="682" y2="22" style="fill:none;stroke:#640000;stroke-miterlimit:10;stroke-width:1.5px"/><line x1="2" y1="2" x2="682" y2="2" style="fill:none;stroke:#640000;stroke-miterlimit:10;stroke-width:1.5px"/><line x1="682" y1="42" x2="2" y2="42" style="fill:none;stroke:#640000;stroke-miterlimit:10;stroke-width:1.5px"/></g><rect x="2" y="2" width="420" height="420" style="fill:none;stroke:#000;stroke-width:1.5px"/><rect x="422" y="2" width="260" height="260" style="fill:none;stroke:#000;stroke-miterlimit:10;stroke-width:1.5px"/><rect x="522" y="262" width="160" height="160" style="fill:none;stroke:#000;stroke-miterlimit:10;stroke-width:1.5px"/><rect x="422" y="322" width="100" height="100" style="fill:none;stroke:#000;stroke-miterlimit:10;stroke-width:1.5px"/><rect x="422" y="262" width="60" height="60" style="fill:none;stroke:#000;stroke-miterlimit:10;stroke-width:1.5px"/><rect x="482" y="262" width="40" height="40" style="fill:none;stroke:#000;stroke-miterlimit:10;stroke-width:1.5px"/><rect x="502" y="302" width="20" height="20" style="fill:none;stroke:#000;stroke-miterlimit:10;stroke-width:1.5px"/><rect x="482" y="302" width="20" height="20" style="fill:none;stroke:#000;stroke-miterlimit:10;stroke-width:1.5px"/><path d="M181.73,238.12V233.2L200,213.51a46,46,0,0,0,5.52-6.85,12.1,12.1,0,0,0,1.86-6.51A8.77,8.77,0,0,0,205,194a8.46,8.46,0,0,0-6.59-2.61,9.9,9.9,0,0,0-7.12,2.78,10.13,10.13,0,0,0-2.9,7.7v.35h-6.68v-.35a15.1,15.1,0,0,1,4.8-11.53,16.71,16.71,0,0,1,11.9-4.5q7,0,11.33,4.15a13.13,13.13,0,0,1,4.31,9.77,15.65,15.65,0,0,1-2.81,9.07,68.92,68.92,0,0,1-6.86,8.33l-14.31,15.09h25.39v5.83Z"/><path d="M237.48,238.12V194.35l-12.93,5.45v-6.54l18.63-7h1v51.89Z"/><path d="M533.14,153.33V116.85l-10.78,4.54V116l15.53-5.86h.88v43.24Z"/><path d="M553.53,142.2v-.3H559v.3a6.63,6.63,0,0,0,2.35,5.44,9.44,9.44,0,0,0,6.21,1.94,9.32,9.32,0,0,0,6.18-1.94c1.54-1.28,2.31-3.3,2.31-6a7.45,7.45,0,0,0-2.6-6.18,10.92,10.92,0,0,0-7-2.08h-3.37v-4.51h3.08a9,9,0,0,0,6.24-2,7,7,0,0,0,2.2-5.48,6.73,6.73,0,0,0-1.91-5.24,7.33,7.33,0,0,0-5.12-1.73,7.93,7.93,0,0,0-5.39,1.73,6.19,6.19,0,0,0-2,4.95v.29h-5.44v-.29a10.57,10.57,0,0,1,3.54-8,14.68,14.68,0,0,1,18.4-.14,10.42,10.42,0,0,1,3.54,8.14,10.79,10.79,0,0,1-1.61,5.63,10.41,10.41,0,0,1-5,4.16V131a10.42,10.42,0,0,1,8.15,10.58,11.44,11.44,0,0,1-4,9.26,15.28,15.28,0,0,1-10.16,3.37q-6.51,0-10.26-3.37A11.1,11.1,0,0,1,553.53,142.2Z"/><path d="M589.5,351.82a9.27,9.27,0,0,1,1.89-5.86,11.26,11.26,0,0,1,4.84-3.63v-.11a10.36,10.36,0,0,1-3.89-3.42,9.23,9.23,0,0,1-1.63-5.46,9.65,9.65,0,0,1,3.29-7.63,12.61,12.61,0,0,1,16,0,9.69,9.69,0,0,1,3.26,7.66,9.29,9.29,0,0,1-1.61,5.46,10.41,10.41,0,0,1-3.88,3.42v.11a11.23,11.23,0,0,1,4.83,3.63,9.38,9.38,0,0,1,1.87,5.86,9.78,9.78,0,0,1-3.6,8.1,15.19,15.19,0,0,1-17.77,0A9.75,9.75,0,0,1,589.5,351.82Zm5-.26a6.69,6.69,0,0,0,2.07,5.11,8.69,8.69,0,0,0,11,0,6.74,6.74,0,0,0,2-5.11,6.84,6.84,0,0,0-2-5.14,8.59,8.59,0,0,0-11,0A6.79,6.79,0,0,0,594.46,351.56Zm1.11-18a6.68,6.68,0,0,0,1.78,4.79,6.1,6.1,0,0,0,4.68,1.88,6,6,0,0,0,4.65-1.88,6.75,6.75,0,0,0,1.75-4.79,6.66,6.66,0,0,0-1.75-4.76A6.09,6.09,0,0,0,602,327a6.16,6.16,0,0,0-4.68,1.86A6.59,6.59,0,0,0,595.57,333.6Z"/><path d="M462.22,379.16V379H466v.21a4.34,4.34,0,0,0,1.6,3.56,6.61,6.61,0,0,0,4.27,1.3,5.71,5.71,0,0,0,4.36-1.82,7.14,7.14,0,0,0,1.71-5.09,6.82,6.82,0,0,0-1.71-5,5.89,5.89,0,0,0-4.36-1.72,7.48,7.48,0,0,0-3.26.67,9.24,9.24,0,0,0-2.65,1.89l-2.71-1.27,1.52-14.89h15.5v3.49H468l-.9,8.41a12.78,12.78,0,0,1,2.4-1.09,9.31,9.31,0,0,1,3-.47,9.22,9.22,0,0,1,6.63,2.63,10.17,10.17,0,0,1-7.24,17.51q-4.61,0-7.12-2.31A7.53,7.53,0,0,1,462.22,379.16Z"/><path d="M2,422C2,189.85,189.85,2,422,2" style="fill:none;stroke:#304ffe;stroke-linecap:round;stroke-width:4px"/><path d="M682,262C682,118.29,565.71,2,422,2" style="fill:none;stroke:#304ffe;stroke-linecap:round;stroke-width:4px"/><path d="M682,262A159.9,159.9,0,0,1,522,422" style="fill:none;stroke:#304ffe;stroke-linecap:round;stroke-width:4px"/><path d="M422,322A100,100,0,0,0,522,422" style="fill:none;stroke:#304ffe;stroke-linecap:round;stroke-width:4px"/><path d="M422,322a60,60,0,0,1,60-60" style="fill:none;stroke:#304ffe;stroke-linecap:round;stroke-width:4px"/><path d="M522,302a40,40,0,0,0-40-40" style="fill:none;stroke:#304ffe;stroke-linecap:round;stroke-width:4px"/><path d="M522,302a20,20,0,0,1-20,20" style="fill:none;stroke:#304ffe;stroke-linecap:round;stroke-width:4px"/><path d="M482,302a20,20,0,0,0,20,20" style="fill:none;stroke:#304ffe;stroke-linecap:round;stroke-width:4px"/></g></svg>