<?xml version="1.0" encoding="UTF-8"?>
<!DOCTYPE svg PUBLIC "-//W3C//DTD SVG 1.1//EN" "http://www.w3.org/Graphics/SVG/1.1/DTD/svg11.dtd">
<svg xmlns="http://www.w3.org/2000/svg" xmlns:xlink="http://www.w3.org/1999/xlink" version="1.1" width="641px" height="41px" viewBox="-0.5 -0.5 641 41" style="background-color: rgb(255, 255, 255);"><defs/><g><rect x="0" y="0" width="40" height="40" fill="#000000" stroke="none" pointer-events="all"/><rect x="40" y="0" width="40" height="40" fill="#333333" stroke="none" pointer-events="all"/><rect x="80" y="0" width="40" height="40" fill="#434343" stroke="none" pointer-events="all"/><rect x="120" y="0" width="40" height="40" fill="#535353" stroke="none" pointer-events="all"/><rect x="160" y="0" width="40" height="40" fill="#636363" stroke="none" pointer-events="all"/><rect x="200" y="0" width="40" height="40" fill="#737373" stroke="none" pointer-events="all"/><rect x="240" y="0" width="40" height="40" fill="#838383" stroke="none" pointer-events="all"/><rect x="280" y="0" width="40" height="40" fill="#939393" stroke="none" pointer-events="all"/><rect x="320" y="0" width="40" height="40" fill="#a3a3a3" stroke="none" pointer-events="all"/><rect x="360" y="0" width="40" height="40" fill="#b3b3b3" stroke="none" pointer-events="all"/><rect x="400" y="0" width="40" height="40" fill="#c3c3c3" stroke="none" pointer-events="all"/><rect x="440" y="0" width="40" height="40" fill="#d3d3d3" stroke="none" pointer-events="all"/><rect x="480" y="0" width="40" height="40" fill="#e3e3e3" stroke="none" pointer-events="all"/><rect x="520" y="0" width="40" height="40" fill="#f3f3f3" stroke="none" pointer-events="all"/><rect x="560" y="0" width="40" height="40" fill="#f3f3f3" stroke="none" pointer-events="all"/><rect x="600" y="0" width="40" height="40" fill="#ffffff" stroke="none" pointer-events="all"/></g></svg>